<svg width="1512" height="982" viewBox="0 0 1512 982" fill="none" xmlns="http://www.w3.org/2000/svg">
<g clip-path="url(#clip0_0_23)">
<rect width="1512" height="982" fill="white"/>
<rect width="1512" height="982" fill="white"/>
<path d="M562.305 652.031L586.68 705H577.812L569.922 687.734H547.695L539.531 705H535.156L560.117 652.031H562.305ZM549.219 684.375H568.32L558.906 663.867L549.219 684.375ZM593.106 653.203H601.817V705H593.106V653.203ZM630.725 653.203H639.436V705H630.725V653.203ZM658.441 664.258H660.706V672.344C663.128 669.635 665.641 667.617 668.245 666.289C670.849 664.935 673.493 664.258 676.175 664.258C677.581 664.258 678.883 664.57 680.081 665.195C681.305 665.82 682.373 666.68 683.284 667.773C684.196 668.867 684.912 670.156 685.433 671.641C685.954 673.099 686.214 674.661 686.214 676.328V705H678.284V677.695C678.284 676.367 678.128 675.208 677.816 674.219C677.503 673.203 677.06 672.357 676.488 671.68C675.915 671.003 675.238 670.495 674.456 670.156C673.701 669.792 672.855 669.609 671.917 669.609C671.084 669.609 670.198 669.753 669.261 670.039C668.323 670.326 667.36 670.729 666.37 671.25C665.407 671.745 664.443 672.344 663.48 673.047C662.516 673.75 661.592 674.531 660.706 675.391V705H652.738V666.484L658.441 664.258ZM705.219 664.258H707.484V672.344C709.906 669.635 712.419 667.617 715.023 666.289C717.628 664.935 720.271 664.258 722.953 664.258C724.359 664.258 725.661 664.57 726.859 665.195C728.083 665.82 729.151 666.68 730.062 667.773C730.974 668.867 731.69 670.156 732.211 671.641C732.732 673.099 732.992 674.661 732.992 676.328V705H725.062V677.695C725.062 676.367 724.906 675.208 724.594 674.219C724.281 673.203 723.839 672.357 723.266 671.68C722.693 671.003 722.016 670.495 721.234 670.156C720.479 669.792 719.633 669.609 718.695 669.609C717.862 669.609 716.977 669.753 716.039 670.039C715.102 670.326 714.138 670.729 713.148 671.25C712.185 671.745 711.221 672.344 710.258 673.047C709.294 673.75 708.37 674.531 707.484 675.391V705H699.516V666.484L705.219 664.258ZM764.731 705.859C761.658 705.859 758.833 705.326 756.255 704.258C753.677 703.19 751.45 701.745 749.575 699.922C747.7 698.073 746.229 695.924 745.161 693.477C744.119 691.003 743.598 688.359 743.598 685.547C743.598 682.604 744.119 679.844 745.161 677.266C746.229 674.661 747.7 672.396 749.575 670.469C751.45 668.542 753.677 667.031 756.255 665.938C758.833 664.818 761.658 664.258 764.731 664.258C767.778 664.258 770.578 664.766 773.13 665.781C775.708 666.797 777.934 668.19 779.809 669.961C781.684 671.732 783.143 673.815 784.184 676.211C785.252 678.581 785.786 681.133 785.786 683.867C785.786 686.888 785.252 689.74 784.184 692.422C783.143 695.078 781.684 697.409 779.809 699.414C777.934 701.393 775.708 702.969 773.13 704.141C770.578 705.286 767.778 705.859 764.731 705.859ZM766.255 702.93C767.817 702.93 769.249 702.526 770.552 701.719C771.854 700.911 772.973 699.831 773.911 698.477C774.848 697.096 775.578 695.508 776.098 693.711C776.619 691.914 776.88 690.013 776.88 688.008C776.88 685.117 776.632 682.409 776.137 679.883C775.643 677.357 774.835 675.156 773.716 673.281C772.596 671.406 771.137 669.935 769.341 668.867C767.544 667.773 765.356 667.227 762.778 667.227C761.45 667.227 760.161 667.617 758.911 668.398C757.661 669.154 756.554 670.195 755.591 671.523C754.653 672.852 753.898 674.414 753.325 676.211C752.752 677.982 752.466 679.87 752.466 681.875C752.466 684.792 752.765 687.526 753.364 690.078C753.989 692.63 754.887 694.857 756.059 696.758C757.257 698.659 758.703 700.169 760.395 701.289C762.114 702.383 764.067 702.93 766.255 702.93ZM797.642 665L811.783 695.273L825.337 665H828.931L810.923 705.43H808.189L789.322 665H797.642ZM860.67 705C859.629 704.479 858.743 703.75 858.014 702.812C857.311 701.849 856.959 700.755 856.959 699.531C856.022 700.234 855.097 700.964 854.186 701.719C853.301 702.474 852.324 703.164 851.256 703.789C850.215 704.388 849.043 704.883 847.741 705.273C846.465 705.664 844.98 705.859 843.288 705.859C841.725 705.859 840.306 705.599 839.03 705.078C837.78 704.583 836.712 703.893 835.827 703.008C834.967 702.122 834.29 701.068 833.795 699.844C833.327 698.62 833.092 697.305 833.092 695.898C833.092 694.18 833.431 692.63 834.108 691.25C834.785 689.87 835.709 688.646 836.881 687.578C838.079 686.484 839.459 685.521 841.022 684.688C842.584 683.828 844.251 683.073 846.022 682.422C847.793 681.745 849.616 681.146 851.491 680.625C853.366 680.104 855.189 679.622 856.959 679.18V676.68C856.959 674.857 856.829 673.32 856.569 672.07C856.308 670.82 855.905 669.818 855.358 669.062C854.811 668.281 854.108 667.734 853.248 667.422C852.415 667.083 851.413 666.914 850.241 666.914C849.121 666.914 848.092 667.135 847.155 667.578C846.217 668.021 845.384 668.62 844.655 669.375C843.952 670.104 843.366 670.977 842.897 671.992C842.454 672.982 842.155 674.036 841.998 675.156H834.733C834.941 673.438 835.527 671.901 836.491 670.547C837.48 669.193 838.717 668.06 840.202 667.148C841.686 666.211 843.366 665.495 845.241 665C847.142 664.505 849.108 664.258 851.139 664.258C853.743 664.258 855.931 664.518 857.702 665.039C859.472 665.534 860.892 666.237 861.959 667.148C863.027 668.06 863.782 669.18 864.225 670.508C864.694 671.81 864.928 673.255 864.928 674.844V699.531C864.928 700.755 865.28 701.849 865.983 702.812C866.712 703.75 867.597 704.479 868.639 705H860.67ZM856.959 681.719C855.814 682.083 854.629 682.5 853.405 682.969C852.181 683.438 850.983 683.971 849.811 684.57C848.639 685.143 847.519 685.768 846.452 686.445C845.384 687.122 844.446 687.852 843.639 688.633C842.832 689.414 842.194 690.234 841.725 691.094C841.256 691.953 841.022 692.852 841.022 693.789C841.022 694.779 841.204 695.716 841.569 696.602C841.933 697.461 842.415 698.229 843.014 698.906C843.613 699.557 844.303 700.078 845.084 700.469C845.866 700.833 846.673 701.016 847.506 701.016C848.392 701.016 849.238 700.898 850.045 700.664C850.853 700.43 851.634 700.117 852.389 699.727C853.144 699.31 853.899 698.841 854.655 698.32C855.41 697.799 856.178 697.24 856.959 696.641V681.719ZM885.417 651.406H887.683V665H896.589V668.398H887.683V696.562C887.683 697.161 887.787 697.721 887.995 698.242C888.23 698.763 888.529 699.219 888.894 699.609C889.284 700 889.74 700.312 890.261 700.547C890.782 700.755 891.355 700.859 891.98 700.859C892.865 700.859 893.672 700.638 894.402 700.195C895.131 699.753 895.769 699.206 896.316 698.555L898.308 699.883C897.214 701.732 895.795 703.19 894.05 704.258C892.305 705.326 890.144 705.859 887.566 705.859C886.237 705.859 885.079 705.625 884.089 705.156C883.099 704.714 882.279 704.089 881.628 703.281C881.003 702.448 880.534 701.471 880.222 700.352C879.909 699.206 879.753 697.943 879.753 696.562V668.398H872.8V666.914L879.753 665V653.633L885.417 651.406ZM908.641 666.523L914.227 664.258H916.531V705H908.641V666.523ZM908.016 649.688C908.016 649.062 908.133 648.477 908.367 647.93C908.602 647.383 908.927 646.901 909.344 646.484C909.76 646.068 910.242 645.742 910.789 645.508C911.336 645.273 911.922 645.156 912.547 645.156C913.172 645.156 913.758 645.273 914.305 645.508C914.852 645.742 915.333 646.068 915.75 646.484C916.167 646.901 916.492 647.383 916.727 647.93C916.961 648.477 917.078 649.062 917.078 649.688C917.078 650.312 916.961 650.898 916.727 651.445C916.492 651.992 916.167 652.474 915.75 652.891C915.333 653.307 914.852 653.633 914.305 653.867C913.758 654.102 913.172 654.219 912.547 654.219C911.922 654.219 911.336 654.102 910.789 653.867C910.242 653.633 909.76 653.307 909.344 652.891C908.927 652.474 908.602 651.992 908.367 651.445C908.133 650.898 908.016 650.312 908.016 649.688ZM948.778 705.859C945.705 705.859 942.88 705.326 940.302 704.258C937.723 703.19 935.497 701.745 933.622 699.922C931.747 698.073 930.276 695.924 929.208 693.477C928.166 691.003 927.645 688.359 927.645 685.547C927.645 682.604 928.166 679.844 929.208 677.266C930.276 674.661 931.747 672.396 933.622 670.469C935.497 668.542 937.723 667.031 940.302 665.938C942.88 664.818 945.705 664.258 948.778 664.258C951.825 664.258 954.624 664.766 957.177 665.781C959.755 666.797 961.981 668.19 963.856 669.961C965.731 671.732 967.19 673.815 968.231 676.211C969.299 678.581 969.833 681.133 969.833 683.867C969.833 686.888 969.299 689.74 968.231 692.422C967.19 695.078 965.731 697.409 963.856 699.414C961.981 701.393 959.755 702.969 957.177 704.141C954.624 705.286 951.825 705.859 948.778 705.859ZM950.302 702.93C951.864 702.93 953.296 702.526 954.598 701.719C955.901 700.911 957.02 699.831 957.958 698.477C958.895 697.096 959.624 695.508 960.145 693.711C960.666 691.914 960.927 690.013 960.927 688.008C960.927 685.117 960.679 682.409 960.184 679.883C959.69 677.357 958.882 675.156 957.763 673.281C956.643 671.406 955.184 669.935 953.388 668.867C951.591 667.773 949.403 667.227 946.825 667.227C945.497 667.227 944.208 667.617 942.958 668.398C941.708 669.154 940.601 670.195 939.638 671.523C938.7 672.852 937.945 674.414 937.372 676.211C936.799 677.982 936.513 679.87 936.513 681.875C936.513 684.792 936.812 687.526 937.411 690.078C938.036 692.63 938.934 694.857 940.106 696.758C941.304 698.659 942.749 700.169 944.442 701.289C946.161 702.383 948.114 702.93 950.302 702.93ZM986.025 664.258H988.291V672.344C990.712 669.635 993.226 667.617 995.83 666.289C998.434 664.935 1001.08 664.258 1003.76 664.258C1005.17 664.258 1006.47 664.57 1007.67 665.195C1008.89 665.82 1009.96 666.68 1010.87 667.773C1011.78 668.867 1012.5 670.156 1013.02 671.641C1013.54 673.099 1013.8 674.661 1013.8 676.328V705H1005.87V677.695C1005.87 676.367 1005.71 675.208 1005.4 674.219C1005.09 673.203 1004.64 672.357 1004.07 671.68C1003.5 671.003 1002.82 670.495 1002.04 670.156C1001.29 669.792 1000.44 669.609 999.502 669.609C998.668 669.609 997.783 669.753 996.845 670.039C995.908 670.326 994.944 670.729 993.955 671.25C992.991 671.745 992.028 672.344 991.064 673.047C990.101 673.75 989.176 674.531 988.291 675.391V705H980.322V666.484L986.025 664.258ZM1042.71 653.203H1051.42V701.641H1077.51V705H1042.71V653.203ZM1109.37 705C1108.33 704.479 1107.44 703.75 1106.71 702.812C1106.01 701.849 1105.66 700.755 1105.66 699.531C1104.72 700.234 1103.79 700.964 1102.88 701.719C1102 702.474 1101.02 703.164 1099.95 703.789C1098.91 704.388 1097.74 704.883 1096.44 705.273C1095.16 705.664 1093.68 705.859 1091.98 705.859C1090.42 705.859 1089 705.599 1087.73 705.078C1086.48 704.583 1085.41 703.893 1084.52 703.008C1083.66 702.122 1082.99 701.068 1082.49 699.844C1082.02 698.62 1081.79 697.305 1081.79 695.898C1081.79 694.18 1082.13 692.63 1082.8 691.25C1083.48 689.87 1084.41 688.646 1085.58 687.578C1086.78 686.484 1088.16 685.521 1089.72 684.688C1091.28 683.828 1092.95 683.073 1094.72 682.422C1096.49 681.745 1098.31 681.146 1100.19 680.625C1102.06 680.104 1103.89 679.622 1105.66 679.18V676.68C1105.66 674.857 1105.53 673.32 1105.27 672.07C1105.01 670.82 1104.6 669.818 1104.05 669.062C1103.51 668.281 1102.8 667.734 1101.95 667.422C1101.11 667.083 1100.11 666.914 1098.94 666.914C1097.82 666.914 1096.79 667.135 1095.85 667.578C1094.91 668.021 1094.08 668.62 1093.35 669.375C1092.65 670.104 1092.06 670.977 1091.59 671.992C1091.15 672.982 1090.85 674.036 1090.7 675.156H1083.43C1083.64 673.438 1084.22 671.901 1085.19 670.547C1086.18 669.193 1087.41 668.06 1088.9 667.148C1090.38 666.211 1092.06 665.495 1093.94 665C1095.84 664.505 1097.8 664.258 1099.84 664.258C1102.44 664.258 1104.63 664.518 1106.4 665.039C1108.17 665.534 1109.59 666.237 1110.66 667.148C1111.72 668.06 1112.48 669.18 1112.92 670.508C1113.39 671.81 1113.62 673.255 1113.62 674.844V699.531C1113.62 700.755 1113.98 701.849 1114.68 702.812C1115.41 703.75 1116.29 704.479 1117.34 705H1109.37ZM1105.66 681.719C1104.51 682.083 1103.33 682.5 1102.1 682.969C1100.88 683.438 1099.68 683.971 1098.51 684.57C1097.34 685.143 1096.22 685.768 1095.15 686.445C1094.08 687.122 1093.14 687.852 1092.34 688.633C1091.53 689.414 1090.89 690.234 1090.42 691.094C1089.95 691.953 1089.72 692.852 1089.72 693.789C1089.72 694.779 1089.9 695.716 1090.27 696.602C1090.63 697.461 1091.11 698.229 1091.71 698.906C1092.31 699.557 1093 700.078 1093.78 700.469C1094.56 700.833 1095.37 701.016 1096.2 701.016C1097.09 701.016 1097.93 700.898 1098.74 700.664C1099.55 700.43 1100.33 700.117 1101.09 699.727C1101.84 699.31 1102.6 698.841 1103.35 698.32C1104.11 697.799 1104.88 697.24 1105.66 696.641V681.719ZM1125.72 646.836L1131.34 644.609H1133.68V672.539C1134.34 671.419 1135.18 670.352 1136.22 669.336C1137.29 668.32 1138.44 667.448 1139.66 666.719C1140.91 665.964 1142.2 665.365 1143.53 664.922C1144.88 664.479 1146.17 664.258 1147.4 664.258C1149.71 664.258 1151.85 664.727 1153.8 665.664C1155.75 666.602 1157.43 667.878 1158.84 669.492C1160.25 671.107 1161.34 672.995 1162.12 675.156C1162.93 677.292 1163.33 679.583 1163.33 682.031C1163.33 685.339 1162.75 688.438 1161.58 691.328C1160.43 694.219 1158.84 696.745 1156.81 698.906C1154.8 701.042 1152.45 702.734 1149.74 703.984C1147.03 705.234 1144.14 705.859 1141.07 705.859C1138.1 705.859 1135.3 705.469 1132.67 704.688C1130.06 703.906 1127.75 702.721 1125.72 701.133V646.836ZM1133.68 698.477C1134.18 698.945 1134.71 699.427 1135.29 699.922C1135.88 700.417 1136.55 700.872 1137.28 701.289C1138.01 701.68 1138.81 702.005 1139.7 702.266C1140.61 702.5 1141.63 702.617 1142.75 702.617C1144.6 702.617 1146.28 702.174 1147.79 701.289C1149.3 700.378 1150.59 699.128 1151.65 697.539C1152.75 695.924 1153.58 694.023 1154.15 691.836C1154.75 689.622 1155.05 687.214 1155.05 684.609C1155.05 682.63 1154.74 680.781 1154.11 679.062C1153.52 677.318 1152.68 675.807 1151.61 674.531C1150.57 673.229 1149.34 672.214 1147.9 671.484C1146.5 670.729 1144.99 670.352 1143.37 670.352C1142.46 670.352 1141.52 670.482 1140.56 670.742C1139.62 671.003 1138.72 671.354 1137.86 671.797C1137 672.24 1136.21 672.76 1135.48 673.359C1134.75 673.932 1134.15 674.557 1133.68 675.234V698.477Z" fill="#6750A4"/>
<circle cx="288" cy="516" r="37.5" fill="#4B0082" stroke="#4B0082" stroke-width="5"/>
<circle cx="184" cy="516" r="37.5" stroke="#4B0082" stroke-width="5"/>
<path d="M590.566 430.609L675.879 616H644.844L617.227 555.57H539.434L510.859 616H495.547L582.91 430.609H590.566ZM544.766 543.812H611.621L578.672 472.035L544.766 543.812ZM689.359 481.332L708.91 473.402H716.977V616H689.359V481.332ZM687.172 422.406C687.172 420.219 687.582 418.168 688.402 416.254C689.223 414.34 690.362 412.654 691.82 411.195C693.279 409.737 694.965 408.598 696.879 407.777C698.793 406.957 700.844 406.547 703.031 406.547C705.219 406.547 707.27 406.957 709.184 407.777C711.098 408.598 712.784 409.737 714.242 411.195C715.701 412.654 716.84 414.34 717.66 416.254C718.48 418.168 718.891 420.219 718.891 422.406C718.891 424.594 718.48 426.645 717.66 428.559C716.84 430.473 715.701 432.159 714.242 433.617C712.784 435.076 711.098 436.215 709.184 437.035C707.27 437.855 705.219 438.266 703.031 438.266C700.844 438.266 698.793 437.855 696.879 437.035C694.965 436.215 693.279 435.076 691.82 433.617C690.362 432.159 689.223 430.473 688.402 428.559C687.582 426.645 687.172 424.594 687.172 422.406ZM756.297 481.332L775.848 473.402H783.914V616H756.297V481.332ZM754.109 422.406C754.109 420.219 754.52 418.168 755.34 416.254C756.16 414.34 757.299 412.654 758.758 411.195C760.216 409.737 761.902 408.598 763.816 407.777C765.73 406.957 767.781 406.547 769.969 406.547C772.156 406.547 774.207 406.957 776.121 407.777C778.035 408.598 779.721 409.737 781.18 411.195C782.638 412.654 783.777 414.34 784.598 416.254C785.418 418.168 785.828 420.219 785.828 422.406C785.828 424.594 785.418 426.645 784.598 428.559C783.777 430.473 782.638 432.159 781.18 433.617C779.721 435.076 778.035 436.215 776.121 437.035C774.207 437.855 772.156 438.266 769.969 438.266C767.781 438.266 765.73 437.855 763.816 437.035C761.902 436.215 760.216 435.076 758.758 433.617C757.299 432.159 756.16 430.473 755.34 428.559C754.52 426.645 754.109 424.594 754.109 422.406ZM848.938 616H821.047V412.562L840.871 404.633H848.938V616ZM971.246 616C967.6 614.177 964.501 611.625 961.949 608.344C959.488 604.971 958.258 601.143 958.258 596.859C954.977 599.32 951.741 601.872 948.551 604.516C945.452 607.159 942.034 609.574 938.297 611.762C934.651 613.858 930.549 615.59 925.992 616.957C921.526 618.324 916.331 619.008 910.406 619.008C904.938 619.008 899.97 618.096 895.504 616.273C891.129 614.542 887.392 612.126 884.293 609.027C881.285 605.928 878.915 602.237 877.184 597.953C875.543 593.669 874.723 589.066 874.723 584.145C874.723 578.129 875.908 572.706 878.277 567.875C880.647 563.044 883.883 558.76 887.984 555.023C892.177 551.195 897.008 547.823 902.477 544.906C907.945 541.898 913.779 539.255 919.977 536.977C926.174 534.607 932.555 532.51 939.117 530.688C945.68 528.865 952.06 527.178 958.258 525.629V516.879C958.258 510.499 957.802 505.121 956.891 500.746C955.979 496.371 954.566 492.862 952.652 490.219C950.738 487.484 948.277 485.57 945.27 484.477C942.353 483.292 938.844 482.699 934.742 482.699C930.823 482.699 927.223 483.474 923.941 485.023C920.66 486.573 917.743 488.669 915.191 491.312C912.73 493.865 910.68 496.918 909.039 500.473C907.49 503.936 906.441 507.628 905.895 511.547H880.465C881.194 505.531 883.245 500.154 886.617 495.414C890.081 490.674 894.41 486.71 899.605 483.52C904.801 480.238 910.68 477.732 917.242 476C923.896 474.268 930.777 473.402 937.887 473.402C947.001 473.402 954.658 474.314 960.855 476.137C967.053 477.868 972.021 480.329 975.758 483.52C979.495 486.71 982.138 490.629 983.688 495.277C985.328 499.835 986.148 504.893 986.148 510.453V596.859C986.148 601.143 987.379 604.971 989.84 608.344C992.392 611.625 995.491 614.177 999.137 616H971.246ZM958.258 534.516C954.247 535.792 950.1 537.25 945.816 538.891C941.533 540.531 937.34 542.4 933.238 544.496C929.137 546.501 925.217 548.689 921.48 551.059C917.743 553.428 914.462 555.98 911.637 558.715C908.811 561.449 906.578 564.32 904.938 567.328C903.297 570.336 902.477 573.48 902.477 576.762C902.477 580.225 903.115 583.507 904.391 586.605C905.667 589.613 907.353 592.302 909.449 594.672C911.546 596.951 913.961 598.773 916.695 600.141C919.43 601.417 922.255 602.055 925.172 602.055C928.271 602.055 931.233 601.645 934.059 600.824C936.884 600.004 939.618 598.91 942.262 597.543C944.905 596.085 947.548 594.444 950.191 592.621C952.835 590.798 955.523 588.839 958.258 586.742V534.516ZM1031.27 412.426L1050.95 404.633H1059.16V502.387C1061.43 498.467 1064.4 494.73 1068.04 491.176C1071.78 487.621 1075.79 484.568 1080.07 482.016C1084.45 479.372 1088.96 477.276 1093.61 475.727C1098.35 474.177 1102.86 473.402 1107.14 473.402C1115.26 473.402 1122.73 475.043 1129.57 478.324C1136.4 481.605 1142.28 486.072 1147.2 491.723C1152.12 497.374 1155.95 503.982 1158.69 511.547C1161.51 519.021 1162.93 527.042 1162.93 535.609C1162.93 547.185 1160.88 558.031 1156.77 568.148C1152.76 578.266 1147.2 587.107 1140.09 594.672C1133.08 602.146 1124.83 608.07 1115.35 612.445C1105.87 616.82 1095.75 619.008 1085 619.008C1074.61 619.008 1064.81 617.641 1055.6 614.906C1046.49 612.172 1038.38 608.025 1031.27 602.465V412.426ZM1059.16 593.168C1060.89 594.809 1062.76 596.495 1064.76 598.227C1066.86 599.958 1069.18 601.553 1071.73 603.012C1074.29 604.379 1077.11 605.518 1080.21 606.43C1083.4 607.25 1086.96 607.66 1090.88 607.66C1097.35 607.66 1103.23 606.111 1108.51 603.012C1113.8 599.822 1118.31 595.447 1122.05 589.887C1125.88 584.236 1128.79 577.582 1130.8 569.926C1132.89 562.178 1133.94 553.747 1133.94 544.633C1133.94 537.706 1132.85 531.234 1130.66 525.219C1128.56 519.112 1125.65 513.826 1121.91 509.359C1118.26 504.802 1113.93 501.247 1108.92 498.695C1104 496.052 1098.71 494.73 1093.06 494.73C1089.87 494.73 1086.59 495.186 1083.22 496.098C1079.94 497.009 1076.79 498.24 1073.79 499.789C1070.78 501.339 1068 503.161 1065.45 505.258C1062.89 507.263 1060.8 509.451 1059.16 511.82V593.168Z" fill="#4B0082"/>
<line x1="414" y1="402" x2="414" y2="632" stroke="#4B0082" stroke-width="2"/>
<circle cx="703" cy="422.5" r="12.5" fill="white"/>
</g>
<defs>
<clipPath id="clip0_0_23">
<rect width="1512" height="982" fill="white"/>
</clipPath>
</defs>
</svg>
